<mxfile host="Electron" agent="Mozilla/5.0 (Windows NT 10.0; Win64; x64) AppleWebKit/537.36 (KHTML, like Gecko) draw.io/26.2.2 Chrome/134.0.6998.178 Electron/35.1.2 Safari/537.36" version="26.2.2">
  <diagram name="Page-1" id="TZjy2mb7sehRJ-YNMmI0">
    <mxGraphModel dx="1093" dy="684" grid="1" gridSize="10" guides="1" tooltips="1" connect="1" arrows="1" fold="1" page="1" pageScale="1" pageWidth="1100" pageHeight="850" math="0" shadow="0">
      <root>
        <mxCell id="0" />
        <mxCell id="1" parent="0" />
        <mxCell id="c51lv8xuJla7acP4EA5A-1" value="&lt;font style=&quot;font-size: 30px;&quot;&gt;&lt;b&gt;Sales Data Mart&lt;/b&gt;&lt;/font&gt;" style="text;html=1;align=center;verticalAlign=middle;whiteSpace=wrap;rounded=0;" vertex="1" parent="1">
          <mxGeometry y="10" width="240" height="30" as="geometry" />
        </mxCell>
        <mxCell id="c51lv8xuJla7acP4EA5A-2" value="(Star Schema)" style="text;html=1;align=center;verticalAlign=middle;whiteSpace=wrap;rounded=0;fontSize=20;" vertex="1" parent="1">
          <mxGeometry x="230" y="20" width="140" height="30" as="geometry" />
        </mxCell>
        <mxCell id="c51lv8xuJla7acP4EA5A-3" value="gold.dimension_customers" style="shape=table;startSize=40;container=1;collapsible=1;childLayout=tableLayout;fixedRows=1;rowLines=0;fontStyle=1;align=center;resizeLast=1;html=1;rounded=1;fillColor=#fff2cc;strokeColor=#d6b656;fontSize=16;" vertex="1" parent="1">
          <mxGeometry x="10" y="190" width="220" height="430" as="geometry" />
        </mxCell>
        <mxCell id="c51lv8xuJla7acP4EA5A-4" value="" style="shape=tableRow;horizontal=0;startSize=0;swimlaneHead=0;swimlaneBody=0;fillColor=none;collapsible=0;dropTarget=0;points=[[0,0.5],[1,0.5]];portConstraint=eastwest;top=0;left=0;right=0;bottom=1;" vertex="1" parent="c51lv8xuJla7acP4EA5A-3">
          <mxGeometry y="40" width="220" height="39" as="geometry" />
        </mxCell>
        <mxCell id="c51lv8xuJla7acP4EA5A-5" value="PK" style="shape=partialRectangle;connectable=0;fillColor=none;top=0;left=0;bottom=0;right=0;fontStyle=1;overflow=hidden;whiteSpace=wrap;html=1;" vertex="1" parent="c51lv8xuJla7acP4EA5A-4">
          <mxGeometry width="30" height="39" as="geometry">
            <mxRectangle width="30" height="39" as="alternateBounds" />
          </mxGeometry>
        </mxCell>
        <mxCell id="c51lv8xuJla7acP4EA5A-6" value="&lt;font style=&quot;font-size: 16px;&quot;&gt;customer_key&lt;/font&gt;" style="shape=partialRectangle;connectable=0;fillColor=none;top=0;left=0;bottom=0;right=0;align=left;spacingLeft=6;fontStyle=5;overflow=hidden;whiteSpace=wrap;html=1;" vertex="1" parent="c51lv8xuJla7acP4EA5A-4">
          <mxGeometry x="30" width="190" height="39" as="geometry">
            <mxRectangle width="190" height="39" as="alternateBounds" />
          </mxGeometry>
        </mxCell>
        <mxCell id="c51lv8xuJla7acP4EA5A-7" value="" style="shape=tableRow;horizontal=0;startSize=0;swimlaneHead=0;swimlaneBody=0;fillColor=none;collapsible=0;dropTarget=0;points=[[0,0.5],[1,0.5]];portConstraint=eastwest;top=0;left=0;right=0;bottom=0;fontSize=16;" vertex="1" parent="c51lv8xuJla7acP4EA5A-3">
          <mxGeometry y="79" width="220" height="39" as="geometry" />
        </mxCell>
        <mxCell id="c51lv8xuJla7acP4EA5A-8" value="" style="shape=partialRectangle;connectable=0;fillColor=none;top=0;left=0;bottom=0;right=0;editable=1;overflow=hidden;whiteSpace=wrap;html=1;fontSize=16;" vertex="1" parent="c51lv8xuJla7acP4EA5A-7">
          <mxGeometry width="30" height="39" as="geometry">
            <mxRectangle width="30" height="39" as="alternateBounds" />
          </mxGeometry>
        </mxCell>
        <mxCell id="c51lv8xuJla7acP4EA5A-9" value="customer_id" style="shape=partialRectangle;connectable=0;fillColor=none;top=0;left=0;bottom=0;right=0;align=left;spacingLeft=6;overflow=hidden;whiteSpace=wrap;html=1;fontSize=16;" vertex="1" parent="c51lv8xuJla7acP4EA5A-7">
          <mxGeometry x="30" width="190" height="39" as="geometry">
            <mxRectangle width="190" height="39" as="alternateBounds" />
          </mxGeometry>
        </mxCell>
        <mxCell id="c51lv8xuJla7acP4EA5A-10" value="" style="shape=tableRow;horizontal=0;startSize=0;swimlaneHead=0;swimlaneBody=0;fillColor=none;collapsible=0;dropTarget=0;points=[[0,0.5],[1,0.5]];portConstraint=eastwest;top=0;left=0;right=0;bottom=0;fontSize=16;" vertex="1" parent="c51lv8xuJla7acP4EA5A-3">
          <mxGeometry y="118" width="220" height="39" as="geometry" />
        </mxCell>
        <mxCell id="c51lv8xuJla7acP4EA5A-11" value="" style="shape=partialRectangle;connectable=0;fillColor=none;top=0;left=0;bottom=0;right=0;editable=1;overflow=hidden;whiteSpace=wrap;html=1;fontSize=16;" vertex="1" parent="c51lv8xuJla7acP4EA5A-10">
          <mxGeometry width="30" height="39" as="geometry">
            <mxRectangle width="30" height="39" as="alternateBounds" />
          </mxGeometry>
        </mxCell>
        <mxCell id="c51lv8xuJla7acP4EA5A-12" value="customer_number" style="shape=partialRectangle;connectable=0;fillColor=none;top=0;left=0;bottom=0;right=0;align=left;spacingLeft=6;overflow=hidden;whiteSpace=wrap;html=1;fontSize=16;" vertex="1" parent="c51lv8xuJla7acP4EA5A-10">
          <mxGeometry x="30" width="190" height="39" as="geometry">
            <mxRectangle width="190" height="39" as="alternateBounds" />
          </mxGeometry>
        </mxCell>
        <mxCell id="c51lv8xuJla7acP4EA5A-13" value="" style="shape=tableRow;horizontal=0;startSize=0;swimlaneHead=0;swimlaneBody=0;fillColor=none;collapsible=0;dropTarget=0;points=[[0,0.5],[1,0.5]];portConstraint=eastwest;top=0;left=0;right=0;bottom=0;fontSize=16;" vertex="1" parent="c51lv8xuJla7acP4EA5A-3">
          <mxGeometry y="157" width="220" height="39" as="geometry" />
        </mxCell>
        <mxCell id="c51lv8xuJla7acP4EA5A-14" value="" style="shape=partialRectangle;connectable=0;fillColor=none;top=0;left=0;bottom=0;right=0;editable=1;overflow=hidden;whiteSpace=wrap;html=1;fontSize=16;" vertex="1" parent="c51lv8xuJla7acP4EA5A-13">
          <mxGeometry width="30" height="39" as="geometry">
            <mxRectangle width="30" height="39" as="alternateBounds" />
          </mxGeometry>
        </mxCell>
        <mxCell id="c51lv8xuJla7acP4EA5A-15" value="first_name" style="shape=partialRectangle;connectable=0;fillColor=none;top=0;left=0;bottom=0;right=0;align=left;spacingLeft=6;overflow=hidden;whiteSpace=wrap;html=1;fontSize=16;" vertex="1" parent="c51lv8xuJla7acP4EA5A-13">
          <mxGeometry x="30" width="190" height="39" as="geometry">
            <mxRectangle width="190" height="39" as="alternateBounds" />
          </mxGeometry>
        </mxCell>
        <mxCell id="c51lv8xuJla7acP4EA5A-16" value="" style="shape=tableRow;horizontal=0;startSize=0;swimlaneHead=0;swimlaneBody=0;fillColor=none;collapsible=0;dropTarget=0;points=[[0,0.5],[1,0.5]];portConstraint=eastwest;top=0;left=0;right=0;bottom=0;fontSize=16;" vertex="1" parent="c51lv8xuJla7acP4EA5A-3">
          <mxGeometry y="196" width="220" height="39" as="geometry" />
        </mxCell>
        <mxCell id="c51lv8xuJla7acP4EA5A-17" value="" style="shape=partialRectangle;connectable=0;fillColor=none;top=0;left=0;bottom=0;right=0;editable=1;overflow=hidden;whiteSpace=wrap;html=1;fontSize=16;" vertex="1" parent="c51lv8xuJla7acP4EA5A-16">
          <mxGeometry width="30" height="39" as="geometry">
            <mxRectangle width="30" height="39" as="alternateBounds" />
          </mxGeometry>
        </mxCell>
        <mxCell id="c51lv8xuJla7acP4EA5A-18" value="last_name" style="shape=partialRectangle;connectable=0;fillColor=none;top=0;left=0;bottom=0;right=0;align=left;spacingLeft=6;overflow=hidden;whiteSpace=wrap;html=1;fontSize=16;" vertex="1" parent="c51lv8xuJla7acP4EA5A-16">
          <mxGeometry x="30" width="190" height="39" as="geometry">
            <mxRectangle width="190" height="39" as="alternateBounds" />
          </mxGeometry>
        </mxCell>
        <mxCell id="c51lv8xuJla7acP4EA5A-19" value="" style="shape=tableRow;horizontal=0;startSize=0;swimlaneHead=0;swimlaneBody=0;fillColor=none;collapsible=0;dropTarget=0;points=[[0,0.5],[1,0.5]];portConstraint=eastwest;top=0;left=0;right=0;bottom=0;fontSize=16;" vertex="1" parent="c51lv8xuJla7acP4EA5A-3">
          <mxGeometry y="235" width="220" height="39" as="geometry" />
        </mxCell>
        <mxCell id="c51lv8xuJla7acP4EA5A-20" value="" style="shape=partialRectangle;connectable=0;fillColor=none;top=0;left=0;bottom=0;right=0;editable=1;overflow=hidden;whiteSpace=wrap;html=1;fontSize=16;" vertex="1" parent="c51lv8xuJla7acP4EA5A-19">
          <mxGeometry width="30" height="39" as="geometry">
            <mxRectangle width="30" height="39" as="alternateBounds" />
          </mxGeometry>
        </mxCell>
        <mxCell id="c51lv8xuJla7acP4EA5A-21" value="country" style="shape=partialRectangle;connectable=0;fillColor=none;top=0;left=0;bottom=0;right=0;align=left;spacingLeft=6;overflow=hidden;whiteSpace=wrap;html=1;fontSize=16;" vertex="1" parent="c51lv8xuJla7acP4EA5A-19">
          <mxGeometry x="30" width="190" height="39" as="geometry">
            <mxRectangle width="190" height="39" as="alternateBounds" />
          </mxGeometry>
        </mxCell>
        <mxCell id="c51lv8xuJla7acP4EA5A-22" value="" style="shape=tableRow;horizontal=0;startSize=0;swimlaneHead=0;swimlaneBody=0;fillColor=none;collapsible=0;dropTarget=0;points=[[0,0.5],[1,0.5]];portConstraint=eastwest;top=0;left=0;right=0;bottom=0;fontSize=16;" vertex="1" parent="c51lv8xuJla7acP4EA5A-3">
          <mxGeometry y="274" width="220" height="39" as="geometry" />
        </mxCell>
        <mxCell id="c51lv8xuJla7acP4EA5A-23" value="" style="shape=partialRectangle;connectable=0;fillColor=none;top=0;left=0;bottom=0;right=0;editable=1;overflow=hidden;whiteSpace=wrap;html=1;fontSize=16;" vertex="1" parent="c51lv8xuJla7acP4EA5A-22">
          <mxGeometry width="30" height="39" as="geometry">
            <mxRectangle width="30" height="39" as="alternateBounds" />
          </mxGeometry>
        </mxCell>
        <mxCell id="c51lv8xuJla7acP4EA5A-24" value="marital_status" style="shape=partialRectangle;connectable=0;fillColor=none;top=0;left=0;bottom=0;right=0;align=left;spacingLeft=6;overflow=hidden;whiteSpace=wrap;html=1;fontSize=16;" vertex="1" parent="c51lv8xuJla7acP4EA5A-22">
          <mxGeometry x="30" width="190" height="39" as="geometry">
            <mxRectangle width="190" height="39" as="alternateBounds" />
          </mxGeometry>
        </mxCell>
        <mxCell id="c51lv8xuJla7acP4EA5A-25" value="" style="shape=tableRow;horizontal=0;startSize=0;swimlaneHead=0;swimlaneBody=0;fillColor=none;collapsible=0;dropTarget=0;points=[[0,0.5],[1,0.5]];portConstraint=eastwest;top=0;left=0;right=0;bottom=0;fontSize=16;" vertex="1" parent="c51lv8xuJla7acP4EA5A-3">
          <mxGeometry y="313" width="220" height="39" as="geometry" />
        </mxCell>
        <mxCell id="c51lv8xuJla7acP4EA5A-26" value="" style="shape=partialRectangle;connectable=0;fillColor=none;top=0;left=0;bottom=0;right=0;editable=1;overflow=hidden;whiteSpace=wrap;html=1;fontSize=16;" vertex="1" parent="c51lv8xuJla7acP4EA5A-25">
          <mxGeometry width="30" height="39" as="geometry">
            <mxRectangle width="30" height="39" as="alternateBounds" />
          </mxGeometry>
        </mxCell>
        <mxCell id="c51lv8xuJla7acP4EA5A-27" value="gender" style="shape=partialRectangle;connectable=0;fillColor=none;top=0;left=0;bottom=0;right=0;align=left;spacingLeft=6;overflow=hidden;whiteSpace=wrap;html=1;fontSize=16;" vertex="1" parent="c51lv8xuJla7acP4EA5A-25">
          <mxGeometry x="30" width="190" height="39" as="geometry">
            <mxRectangle width="190" height="39" as="alternateBounds" />
          </mxGeometry>
        </mxCell>
        <mxCell id="c51lv8xuJla7acP4EA5A-28" value="" style="shape=tableRow;horizontal=0;startSize=0;swimlaneHead=0;swimlaneBody=0;fillColor=none;collapsible=0;dropTarget=0;points=[[0,0.5],[1,0.5]];portConstraint=eastwest;top=0;left=0;right=0;bottom=0;fontSize=16;" vertex="1" parent="c51lv8xuJla7acP4EA5A-3">
          <mxGeometry y="352" width="220" height="39" as="geometry" />
        </mxCell>
        <mxCell id="c51lv8xuJla7acP4EA5A-29" value="" style="shape=partialRectangle;connectable=0;fillColor=none;top=0;left=0;bottom=0;right=0;editable=1;overflow=hidden;whiteSpace=wrap;html=1;fontSize=16;" vertex="1" parent="c51lv8xuJla7acP4EA5A-28">
          <mxGeometry width="30" height="39" as="geometry">
            <mxRectangle width="30" height="39" as="alternateBounds" />
          </mxGeometry>
        </mxCell>
        <mxCell id="c51lv8xuJla7acP4EA5A-30" value="birthdate" style="shape=partialRectangle;connectable=0;fillColor=none;top=0;left=0;bottom=0;right=0;align=left;spacingLeft=6;overflow=hidden;whiteSpace=wrap;html=1;fontSize=16;" vertex="1" parent="c51lv8xuJla7acP4EA5A-28">
          <mxGeometry x="30" width="190" height="39" as="geometry">
            <mxRectangle width="190" height="39" as="alternateBounds" />
          </mxGeometry>
        </mxCell>
        <mxCell id="c51lv8xuJla7acP4EA5A-31" value="" style="shape=tableRow;horizontal=0;startSize=0;swimlaneHead=0;swimlaneBody=0;fillColor=none;collapsible=0;dropTarget=0;points=[[0,0.5],[1,0.5]];portConstraint=eastwest;top=0;left=0;right=0;bottom=0;fontSize=16;" vertex="1" parent="c51lv8xuJla7acP4EA5A-3">
          <mxGeometry y="391" width="220" height="39" as="geometry" />
        </mxCell>
        <mxCell id="c51lv8xuJla7acP4EA5A-32" value="" style="shape=partialRectangle;connectable=0;fillColor=none;top=0;left=0;bottom=0;right=0;editable=1;overflow=hidden;whiteSpace=wrap;html=1;fontSize=16;" vertex="1" parent="c51lv8xuJla7acP4EA5A-31">
          <mxGeometry width="30" height="39" as="geometry">
            <mxRectangle width="30" height="39" as="alternateBounds" />
          </mxGeometry>
        </mxCell>
        <mxCell id="c51lv8xuJla7acP4EA5A-33" value="country" style="shape=partialRectangle;connectable=0;fillColor=none;top=0;left=0;bottom=0;right=0;align=left;spacingLeft=6;overflow=hidden;whiteSpace=wrap;html=1;fontSize=16;" vertex="1" parent="c51lv8xuJla7acP4EA5A-31">
          <mxGeometry x="30" width="190" height="39" as="geometry">
            <mxRectangle width="190" height="39" as="alternateBounds" />
          </mxGeometry>
        </mxCell>
        <mxCell id="c51lv8xuJla7acP4EA5A-34" value="gold.fact_sales" style="shape=table;startSize=40;container=1;collapsible=1;childLayout=tableLayout;fixedRows=1;rowLines=0;fontStyle=1;align=center;resizeLast=1;html=1;rounded=1;fillColor=#dae8fc;strokeColor=#6c8ebf;fontSize=16;" vertex="1" parent="1">
          <mxGeometry x="430" y="193" width="220" height="387" as="geometry" />
        </mxCell>
        <mxCell id="c51lv8xuJla7acP4EA5A-38" value="" style="shape=tableRow;horizontal=0;startSize=0;swimlaneHead=0;swimlaneBody=0;fillColor=none;collapsible=0;dropTarget=0;points=[[0,0.5],[1,0.5]];portConstraint=eastwest;top=0;left=0;right=0;bottom=0;fontSize=16;" vertex="1" parent="c51lv8xuJla7acP4EA5A-34">
          <mxGeometry y="40" width="220" height="39" as="geometry" />
        </mxCell>
        <mxCell id="c51lv8xuJla7acP4EA5A-39" value="" style="shape=partialRectangle;connectable=0;fillColor=none;top=0;left=0;bottom=0;right=0;editable=1;overflow=hidden;whiteSpace=wrap;html=1;fontSize=16;" vertex="1" parent="c51lv8xuJla7acP4EA5A-38">
          <mxGeometry width="40" height="39" as="geometry">
            <mxRectangle width="40" height="39" as="alternateBounds" />
          </mxGeometry>
        </mxCell>
        <mxCell id="c51lv8xuJla7acP4EA5A-40" value="order_number" style="shape=partialRectangle;connectable=0;fillColor=none;top=0;left=0;bottom=0;right=0;align=left;spacingLeft=6;overflow=hidden;whiteSpace=wrap;html=1;fontSize=16;" vertex="1" parent="c51lv8xuJla7acP4EA5A-38">
          <mxGeometry x="40" width="180" height="39" as="geometry">
            <mxRectangle width="180" height="39" as="alternateBounds" />
          </mxGeometry>
        </mxCell>
        <mxCell id="c51lv8xuJla7acP4EA5A-41" value="" style="shape=tableRow;horizontal=0;startSize=0;swimlaneHead=0;swimlaneBody=0;fillColor=none;collapsible=0;dropTarget=0;points=[[0,0.5],[1,0.5]];portConstraint=eastwest;top=0;left=0;right=0;bottom=0;fontSize=16;" vertex="1" parent="c51lv8xuJla7acP4EA5A-34">
          <mxGeometry y="79" width="220" height="39" as="geometry" />
        </mxCell>
        <mxCell id="c51lv8xuJla7acP4EA5A-42" value="FK1" style="shape=partialRectangle;connectable=0;fillColor=none;top=0;left=0;bottom=0;right=0;editable=1;overflow=hidden;whiteSpace=wrap;html=1;fontSize=16;fontStyle=1" vertex="1" parent="c51lv8xuJla7acP4EA5A-41">
          <mxGeometry width="40" height="39" as="geometry">
            <mxRectangle width="40" height="39" as="alternateBounds" />
          </mxGeometry>
        </mxCell>
        <mxCell id="c51lv8xuJla7acP4EA5A-43" value="product_key" style="shape=partialRectangle;connectable=0;fillColor=none;top=0;left=0;bottom=0;right=0;align=left;spacingLeft=6;overflow=hidden;whiteSpace=wrap;html=1;fontSize=16;" vertex="1" parent="c51lv8xuJla7acP4EA5A-41">
          <mxGeometry x="40" width="180" height="39" as="geometry">
            <mxRectangle width="180" height="39" as="alternateBounds" />
          </mxGeometry>
        </mxCell>
        <mxCell id="c51lv8xuJla7acP4EA5A-44" value="" style="shape=tableRow;horizontal=0;startSize=0;swimlaneHead=0;swimlaneBody=0;fillColor=none;collapsible=0;dropTarget=0;points=[[0,0.5],[1,0.5]];portConstraint=eastwest;top=0;left=0;right=0;bottom=0;fontSize=16;" vertex="1" parent="c51lv8xuJla7acP4EA5A-34">
          <mxGeometry y="118" width="220" height="39" as="geometry" />
        </mxCell>
        <mxCell id="c51lv8xuJla7acP4EA5A-45" value="FK2" style="shape=partialRectangle;connectable=0;fillColor=none;top=0;left=0;bottom=0;right=0;editable=1;overflow=hidden;whiteSpace=wrap;html=1;fontSize=16;fontStyle=1" vertex="1" parent="c51lv8xuJla7acP4EA5A-44">
          <mxGeometry width="40" height="39" as="geometry">
            <mxRectangle width="40" height="39" as="alternateBounds" />
          </mxGeometry>
        </mxCell>
        <mxCell id="c51lv8xuJla7acP4EA5A-46" value="customer_key" style="shape=partialRectangle;connectable=0;fillColor=none;top=0;left=0;bottom=0;right=0;align=left;spacingLeft=6;overflow=hidden;whiteSpace=wrap;html=1;fontSize=16;" vertex="1" parent="c51lv8xuJla7acP4EA5A-44">
          <mxGeometry x="40" width="180" height="39" as="geometry">
            <mxRectangle width="180" height="39" as="alternateBounds" />
          </mxGeometry>
        </mxCell>
        <mxCell id="c51lv8xuJla7acP4EA5A-47" value="" style="shape=tableRow;horizontal=0;startSize=0;swimlaneHead=0;swimlaneBody=0;fillColor=none;collapsible=0;dropTarget=0;points=[[0,0.5],[1,0.5]];portConstraint=eastwest;top=0;left=0;right=0;bottom=0;fontSize=16;" vertex="1" parent="c51lv8xuJla7acP4EA5A-34">
          <mxGeometry y="157" width="220" height="39" as="geometry" />
        </mxCell>
        <mxCell id="c51lv8xuJla7acP4EA5A-48" value="" style="shape=partialRectangle;connectable=0;fillColor=none;top=0;left=0;bottom=0;right=0;editable=1;overflow=hidden;whiteSpace=wrap;html=1;fontSize=16;" vertex="1" parent="c51lv8xuJla7acP4EA5A-47">
          <mxGeometry width="40" height="39" as="geometry">
            <mxRectangle width="40" height="39" as="alternateBounds" />
          </mxGeometry>
        </mxCell>
        <mxCell id="c51lv8xuJla7acP4EA5A-49" value="order_date" style="shape=partialRectangle;connectable=0;fillColor=none;top=0;left=0;bottom=0;right=0;align=left;spacingLeft=6;overflow=hidden;whiteSpace=wrap;html=1;fontSize=16;" vertex="1" parent="c51lv8xuJla7acP4EA5A-47">
          <mxGeometry x="40" width="180" height="39" as="geometry">
            <mxRectangle width="180" height="39" as="alternateBounds" />
          </mxGeometry>
        </mxCell>
        <mxCell id="c51lv8xuJla7acP4EA5A-50" value="" style="shape=tableRow;horizontal=0;startSize=0;swimlaneHead=0;swimlaneBody=0;fillColor=none;collapsible=0;dropTarget=0;points=[[0,0.5],[1,0.5]];portConstraint=eastwest;top=0;left=0;right=0;bottom=0;fontSize=16;" vertex="1" parent="c51lv8xuJla7acP4EA5A-34">
          <mxGeometry y="196" width="220" height="35" as="geometry" />
        </mxCell>
        <mxCell id="c51lv8xuJla7acP4EA5A-51" value="" style="shape=partialRectangle;connectable=0;fillColor=none;top=0;left=0;bottom=0;right=0;editable=1;overflow=hidden;whiteSpace=wrap;html=1;fontSize=16;" vertex="1" parent="c51lv8xuJla7acP4EA5A-50">
          <mxGeometry width="40" height="35" as="geometry">
            <mxRectangle width="40" height="35" as="alternateBounds" />
          </mxGeometry>
        </mxCell>
        <mxCell id="c51lv8xuJla7acP4EA5A-52" value="shipping_date" style="shape=partialRectangle;connectable=0;fillColor=none;top=0;left=0;bottom=0;right=0;align=left;spacingLeft=6;overflow=hidden;whiteSpace=wrap;html=1;fontSize=16;" vertex="1" parent="c51lv8xuJla7acP4EA5A-50">
          <mxGeometry x="40" width="180" height="35" as="geometry">
            <mxRectangle width="180" height="35" as="alternateBounds" />
          </mxGeometry>
        </mxCell>
        <mxCell id="c51lv8xuJla7acP4EA5A-53" value="" style="shape=tableRow;horizontal=0;startSize=0;swimlaneHead=0;swimlaneBody=0;fillColor=none;collapsible=0;dropTarget=0;points=[[0,0.5],[1,0.5]];portConstraint=eastwest;top=0;left=0;right=0;bottom=0;fontSize=16;" vertex="1" parent="c51lv8xuJla7acP4EA5A-34">
          <mxGeometry y="231" width="220" height="39" as="geometry" />
        </mxCell>
        <mxCell id="c51lv8xuJla7acP4EA5A-54" value="" style="shape=partialRectangle;connectable=0;fillColor=none;top=0;left=0;bottom=0;right=0;editable=1;overflow=hidden;whiteSpace=wrap;html=1;fontSize=16;" vertex="1" parent="c51lv8xuJla7acP4EA5A-53">
          <mxGeometry width="40" height="39" as="geometry">
            <mxRectangle width="40" height="39" as="alternateBounds" />
          </mxGeometry>
        </mxCell>
        <mxCell id="c51lv8xuJla7acP4EA5A-55" value="due_date" style="shape=partialRectangle;connectable=0;fillColor=none;top=0;left=0;bottom=0;right=0;align=left;spacingLeft=6;overflow=hidden;whiteSpace=wrap;html=1;fontSize=16;" vertex="1" parent="c51lv8xuJla7acP4EA5A-53">
          <mxGeometry x="40" width="180" height="39" as="geometry">
            <mxRectangle width="180" height="39" as="alternateBounds" />
          </mxGeometry>
        </mxCell>
        <mxCell id="c51lv8xuJla7acP4EA5A-56" value="" style="shape=tableRow;horizontal=0;startSize=0;swimlaneHead=0;swimlaneBody=0;fillColor=none;collapsible=0;dropTarget=0;points=[[0,0.5],[1,0.5]];portConstraint=eastwest;top=0;left=0;right=0;bottom=0;fontSize=16;" vertex="1" parent="c51lv8xuJla7acP4EA5A-34">
          <mxGeometry y="270" width="220" height="39" as="geometry" />
        </mxCell>
        <mxCell id="c51lv8xuJla7acP4EA5A-57" value="" style="shape=partialRectangle;connectable=0;fillColor=none;top=0;left=0;bottom=0;right=0;editable=1;overflow=hidden;whiteSpace=wrap;html=1;fontSize=16;" vertex="1" parent="c51lv8xuJla7acP4EA5A-56">
          <mxGeometry width="40" height="39" as="geometry">
            <mxRectangle width="40" height="39" as="alternateBounds" />
          </mxGeometry>
        </mxCell>
        <mxCell id="c51lv8xuJla7acP4EA5A-58" value="sales_amount" style="shape=partialRectangle;connectable=0;fillColor=none;top=0;left=0;bottom=0;right=0;align=left;spacingLeft=6;overflow=hidden;whiteSpace=wrap;html=1;fontSize=16;" vertex="1" parent="c51lv8xuJla7acP4EA5A-56">
          <mxGeometry x="40" width="180" height="39" as="geometry">
            <mxRectangle width="180" height="39" as="alternateBounds" />
          </mxGeometry>
        </mxCell>
        <mxCell id="c51lv8xuJla7acP4EA5A-59" value="" style="shape=tableRow;horizontal=0;startSize=0;swimlaneHead=0;swimlaneBody=0;fillColor=none;collapsible=0;dropTarget=0;points=[[0,0.5],[1,0.5]];portConstraint=eastwest;top=0;left=0;right=0;bottom=0;fontSize=16;" vertex="1" parent="c51lv8xuJla7acP4EA5A-34">
          <mxGeometry y="309" width="220" height="39" as="geometry" />
        </mxCell>
        <mxCell id="c51lv8xuJla7acP4EA5A-60" value="" style="shape=partialRectangle;connectable=0;fillColor=none;top=0;left=0;bottom=0;right=0;editable=1;overflow=hidden;whiteSpace=wrap;html=1;fontSize=16;" vertex="1" parent="c51lv8xuJla7acP4EA5A-59">
          <mxGeometry width="40" height="39" as="geometry">
            <mxRectangle width="40" height="39" as="alternateBounds" />
          </mxGeometry>
        </mxCell>
        <mxCell id="c51lv8xuJla7acP4EA5A-61" value="quantity" style="shape=partialRectangle;connectable=0;fillColor=none;top=0;left=0;bottom=0;right=0;align=left;spacingLeft=6;overflow=hidden;whiteSpace=wrap;html=1;fontSize=16;" vertex="1" parent="c51lv8xuJla7acP4EA5A-59">
          <mxGeometry x="40" width="180" height="39" as="geometry">
            <mxRectangle width="180" height="39" as="alternateBounds" />
          </mxGeometry>
        </mxCell>
        <mxCell id="c51lv8xuJla7acP4EA5A-62" value="" style="shape=tableRow;horizontal=0;startSize=0;swimlaneHead=0;swimlaneBody=0;fillColor=none;collapsible=0;dropTarget=0;points=[[0,0.5],[1,0.5]];portConstraint=eastwest;top=0;left=0;right=0;bottom=0;fontSize=16;" vertex="1" parent="c51lv8xuJla7acP4EA5A-34">
          <mxGeometry y="348" width="220" height="39" as="geometry" />
        </mxCell>
        <mxCell id="c51lv8xuJla7acP4EA5A-63" value="" style="shape=partialRectangle;connectable=0;fillColor=none;top=0;left=0;bottom=0;right=0;editable=1;overflow=hidden;whiteSpace=wrap;html=1;fontSize=16;" vertex="1" parent="c51lv8xuJla7acP4EA5A-62">
          <mxGeometry width="40" height="39" as="geometry">
            <mxRectangle width="40" height="39" as="alternateBounds" />
          </mxGeometry>
        </mxCell>
        <mxCell id="c51lv8xuJla7acP4EA5A-64" value="price" style="shape=partialRectangle;connectable=0;fillColor=none;top=0;left=0;bottom=0;right=0;align=left;spacingLeft=6;overflow=hidden;whiteSpace=wrap;html=1;fontSize=16;" vertex="1" parent="c51lv8xuJla7acP4EA5A-62">
          <mxGeometry x="40" width="180" height="39" as="geometry">
            <mxRectangle width="180" height="39" as="alternateBounds" />
          </mxGeometry>
        </mxCell>
        <mxCell id="c51lv8xuJla7acP4EA5A-68" value="gold.dimension_customers" style="shape=table;startSize=40;container=1;collapsible=1;childLayout=tableLayout;fixedRows=1;rowLines=0;fontStyle=1;align=center;resizeLast=1;html=1;rounded=1;fillColor=#fff2cc;strokeColor=#d6b656;fontSize=16;" vertex="1" parent="1">
          <mxGeometry x="850" y="193" width="220" height="465" as="geometry" />
        </mxCell>
        <mxCell id="c51lv8xuJla7acP4EA5A-69" value="" style="shape=tableRow;horizontal=0;startSize=0;swimlaneHead=0;swimlaneBody=0;fillColor=none;collapsible=0;dropTarget=0;points=[[0,0.5],[1,0.5]];portConstraint=eastwest;top=0;left=0;right=0;bottom=1;" vertex="1" parent="c51lv8xuJla7acP4EA5A-68">
          <mxGeometry y="40" width="220" height="39" as="geometry" />
        </mxCell>
        <mxCell id="c51lv8xuJla7acP4EA5A-70" value="PK" style="shape=partialRectangle;connectable=0;fillColor=none;top=0;left=0;bottom=0;right=0;fontStyle=1;overflow=hidden;whiteSpace=wrap;html=1;fontSize=16;" vertex="1" parent="c51lv8xuJla7acP4EA5A-69">
          <mxGeometry width="30" height="39" as="geometry">
            <mxRectangle width="30" height="39" as="alternateBounds" />
          </mxGeometry>
        </mxCell>
        <mxCell id="c51lv8xuJla7acP4EA5A-71" value="&lt;font style=&quot;font-size: 16px;&quot;&gt;customer_key&lt;/font&gt;" style="shape=partialRectangle;connectable=0;fillColor=none;top=0;left=0;bottom=0;right=0;align=left;spacingLeft=6;fontStyle=5;overflow=hidden;whiteSpace=wrap;html=1;" vertex="1" parent="c51lv8xuJla7acP4EA5A-69">
          <mxGeometry x="30" width="190" height="39" as="geometry">
            <mxRectangle width="190" height="39" as="alternateBounds" />
          </mxGeometry>
        </mxCell>
        <mxCell id="c51lv8xuJla7acP4EA5A-72" value="" style="shape=tableRow;horizontal=0;startSize=0;swimlaneHead=0;swimlaneBody=0;fillColor=none;collapsible=0;dropTarget=0;points=[[0,0.5],[1,0.5]];portConstraint=eastwest;top=0;left=0;right=0;bottom=0;fontSize=16;" vertex="1" parent="c51lv8xuJla7acP4EA5A-68">
          <mxGeometry y="79" width="220" height="39" as="geometry" />
        </mxCell>
        <mxCell id="c51lv8xuJla7acP4EA5A-73" value="" style="shape=partialRectangle;connectable=0;fillColor=none;top=0;left=0;bottom=0;right=0;editable=1;overflow=hidden;whiteSpace=wrap;html=1;fontSize=16;" vertex="1" parent="c51lv8xuJla7acP4EA5A-72">
          <mxGeometry width="30" height="39" as="geometry">
            <mxRectangle width="30" height="39" as="alternateBounds" />
          </mxGeometry>
        </mxCell>
        <mxCell id="c51lv8xuJla7acP4EA5A-74" value="product_id" style="shape=partialRectangle;connectable=0;fillColor=none;top=0;left=0;bottom=0;right=0;align=left;spacingLeft=6;overflow=hidden;whiteSpace=wrap;html=1;fontSize=16;" vertex="1" parent="c51lv8xuJla7acP4EA5A-72">
          <mxGeometry x="30" width="190" height="39" as="geometry">
            <mxRectangle width="190" height="39" as="alternateBounds" />
          </mxGeometry>
        </mxCell>
        <mxCell id="c51lv8xuJla7acP4EA5A-75" value="" style="shape=tableRow;horizontal=0;startSize=0;swimlaneHead=0;swimlaneBody=0;fillColor=none;collapsible=0;dropTarget=0;points=[[0,0.5],[1,0.5]];portConstraint=eastwest;top=0;left=0;right=0;bottom=0;fontSize=16;" vertex="1" parent="c51lv8xuJla7acP4EA5A-68">
          <mxGeometry y="118" width="220" height="39" as="geometry" />
        </mxCell>
        <mxCell id="c51lv8xuJla7acP4EA5A-76" value="" style="shape=partialRectangle;connectable=0;fillColor=none;top=0;left=0;bottom=0;right=0;editable=1;overflow=hidden;whiteSpace=wrap;html=1;fontSize=16;" vertex="1" parent="c51lv8xuJla7acP4EA5A-75">
          <mxGeometry width="30" height="39" as="geometry">
            <mxRectangle width="30" height="39" as="alternateBounds" />
          </mxGeometry>
        </mxCell>
        <mxCell id="c51lv8xuJla7acP4EA5A-77" value="product_number" style="shape=partialRectangle;connectable=0;fillColor=none;top=0;left=0;bottom=0;right=0;align=left;spacingLeft=6;overflow=hidden;whiteSpace=wrap;html=1;fontSize=16;" vertex="1" parent="c51lv8xuJla7acP4EA5A-75">
          <mxGeometry x="30" width="190" height="39" as="geometry">
            <mxRectangle width="190" height="39" as="alternateBounds" />
          </mxGeometry>
        </mxCell>
        <mxCell id="c51lv8xuJla7acP4EA5A-78" value="" style="shape=tableRow;horizontal=0;startSize=0;swimlaneHead=0;swimlaneBody=0;fillColor=none;collapsible=0;dropTarget=0;points=[[0,0.5],[1,0.5]];portConstraint=eastwest;top=0;left=0;right=0;bottom=0;fontSize=16;" vertex="1" parent="c51lv8xuJla7acP4EA5A-68">
          <mxGeometry y="157" width="220" height="39" as="geometry" />
        </mxCell>
        <mxCell id="c51lv8xuJla7acP4EA5A-79" value="" style="shape=partialRectangle;connectable=0;fillColor=none;top=0;left=0;bottom=0;right=0;editable=1;overflow=hidden;whiteSpace=wrap;html=1;fontSize=16;" vertex="1" parent="c51lv8xuJla7acP4EA5A-78">
          <mxGeometry width="30" height="39" as="geometry">
            <mxRectangle width="30" height="39" as="alternateBounds" />
          </mxGeometry>
        </mxCell>
        <mxCell id="c51lv8xuJla7acP4EA5A-80" value="product_name" style="shape=partialRectangle;connectable=0;fillColor=none;top=0;left=0;bottom=0;right=0;align=left;spacingLeft=6;overflow=hidden;whiteSpace=wrap;html=1;fontSize=16;" vertex="1" parent="c51lv8xuJla7acP4EA5A-78">
          <mxGeometry x="30" width="190" height="39" as="geometry">
            <mxRectangle width="190" height="39" as="alternateBounds" />
          </mxGeometry>
        </mxCell>
        <mxCell id="c51lv8xuJla7acP4EA5A-81" value="" style="shape=tableRow;horizontal=0;startSize=0;swimlaneHead=0;swimlaneBody=0;fillColor=none;collapsible=0;dropTarget=0;points=[[0,0.5],[1,0.5]];portConstraint=eastwest;top=0;left=0;right=0;bottom=0;fontSize=16;" vertex="1" parent="c51lv8xuJla7acP4EA5A-68">
          <mxGeometry y="196" width="220" height="39" as="geometry" />
        </mxCell>
        <mxCell id="c51lv8xuJla7acP4EA5A-82" value="" style="shape=partialRectangle;connectable=0;fillColor=none;top=0;left=0;bottom=0;right=0;editable=1;overflow=hidden;whiteSpace=wrap;html=1;fontSize=16;" vertex="1" parent="c51lv8xuJla7acP4EA5A-81">
          <mxGeometry width="30" height="39" as="geometry">
            <mxRectangle width="30" height="39" as="alternateBounds" />
          </mxGeometry>
        </mxCell>
        <mxCell id="c51lv8xuJla7acP4EA5A-83" value="category_id" style="shape=partialRectangle;connectable=0;fillColor=none;top=0;left=0;bottom=0;right=0;align=left;spacingLeft=6;overflow=hidden;whiteSpace=wrap;html=1;fontSize=16;" vertex="1" parent="c51lv8xuJla7acP4EA5A-81">
          <mxGeometry x="30" width="190" height="39" as="geometry">
            <mxRectangle width="190" height="39" as="alternateBounds" />
          </mxGeometry>
        </mxCell>
        <mxCell id="c51lv8xuJla7acP4EA5A-84" value="" style="shape=tableRow;horizontal=0;startSize=0;swimlaneHead=0;swimlaneBody=0;fillColor=none;collapsible=0;dropTarget=0;points=[[0,0.5],[1,0.5]];portConstraint=eastwest;top=0;left=0;right=0;bottom=0;fontSize=16;" vertex="1" parent="c51lv8xuJla7acP4EA5A-68">
          <mxGeometry y="235" width="220" height="35" as="geometry" />
        </mxCell>
        <mxCell id="c51lv8xuJla7acP4EA5A-85" value="" style="shape=partialRectangle;connectable=0;fillColor=none;top=0;left=0;bottom=0;right=0;editable=1;overflow=hidden;whiteSpace=wrap;html=1;fontSize=16;" vertex="1" parent="c51lv8xuJla7acP4EA5A-84">
          <mxGeometry width="30" height="35" as="geometry">
            <mxRectangle width="30" height="35" as="alternateBounds" />
          </mxGeometry>
        </mxCell>
        <mxCell id="c51lv8xuJla7acP4EA5A-86" value="category" style="shape=partialRectangle;connectable=0;fillColor=none;top=0;left=0;bottom=0;right=0;align=left;spacingLeft=6;overflow=hidden;whiteSpace=wrap;html=1;fontSize=16;" vertex="1" parent="c51lv8xuJla7acP4EA5A-84">
          <mxGeometry x="30" width="190" height="35" as="geometry">
            <mxRectangle width="190" height="35" as="alternateBounds" />
          </mxGeometry>
        </mxCell>
        <mxCell id="c51lv8xuJla7acP4EA5A-87" value="" style="shape=tableRow;horizontal=0;startSize=0;swimlaneHead=0;swimlaneBody=0;fillColor=none;collapsible=0;dropTarget=0;points=[[0,0.5],[1,0.5]];portConstraint=eastwest;top=0;left=0;right=0;bottom=0;fontSize=16;" vertex="1" parent="c51lv8xuJla7acP4EA5A-68">
          <mxGeometry y="270" width="220" height="39" as="geometry" />
        </mxCell>
        <mxCell id="c51lv8xuJla7acP4EA5A-88" value="" style="shape=partialRectangle;connectable=0;fillColor=none;top=0;left=0;bottom=0;right=0;editable=1;overflow=hidden;whiteSpace=wrap;html=1;fontSize=16;" vertex="1" parent="c51lv8xuJla7acP4EA5A-87">
          <mxGeometry width="30" height="39" as="geometry">
            <mxRectangle width="30" height="39" as="alternateBounds" />
          </mxGeometry>
        </mxCell>
        <mxCell id="c51lv8xuJla7acP4EA5A-89" value="subcategory" style="shape=partialRectangle;connectable=0;fillColor=none;top=0;left=0;bottom=0;right=0;align=left;spacingLeft=6;overflow=hidden;whiteSpace=wrap;html=1;fontSize=16;" vertex="1" parent="c51lv8xuJla7acP4EA5A-87">
          <mxGeometry x="30" width="190" height="39" as="geometry">
            <mxRectangle width="190" height="39" as="alternateBounds" />
          </mxGeometry>
        </mxCell>
        <mxCell id="c51lv8xuJla7acP4EA5A-90" value="" style="shape=tableRow;horizontal=0;startSize=0;swimlaneHead=0;swimlaneBody=0;fillColor=none;collapsible=0;dropTarget=0;points=[[0,0.5],[1,0.5]];portConstraint=eastwest;top=0;left=0;right=0;bottom=0;fontSize=16;" vertex="1" parent="c51lv8xuJla7acP4EA5A-68">
          <mxGeometry y="309" width="220" height="39" as="geometry" />
        </mxCell>
        <mxCell id="c51lv8xuJla7acP4EA5A-91" value="" style="shape=partialRectangle;connectable=0;fillColor=none;top=0;left=0;bottom=0;right=0;editable=1;overflow=hidden;whiteSpace=wrap;html=1;fontSize=16;" vertex="1" parent="c51lv8xuJla7acP4EA5A-90">
          <mxGeometry width="30" height="39" as="geometry">
            <mxRectangle width="30" height="39" as="alternateBounds" />
          </mxGeometry>
        </mxCell>
        <mxCell id="c51lv8xuJla7acP4EA5A-92" value="maintenance" style="shape=partialRectangle;connectable=0;fillColor=none;top=0;left=0;bottom=0;right=0;align=left;spacingLeft=6;overflow=hidden;whiteSpace=wrap;html=1;fontSize=16;" vertex="1" parent="c51lv8xuJla7acP4EA5A-90">
          <mxGeometry x="30" width="190" height="39" as="geometry">
            <mxRectangle width="190" height="39" as="alternateBounds" />
          </mxGeometry>
        </mxCell>
        <mxCell id="c51lv8xuJla7acP4EA5A-93" value="" style="shape=tableRow;horizontal=0;startSize=0;swimlaneHead=0;swimlaneBody=0;fillColor=none;collapsible=0;dropTarget=0;points=[[0,0.5],[1,0.5]];portConstraint=eastwest;top=0;left=0;right=0;bottom=0;fontSize=16;" vertex="1" parent="c51lv8xuJla7acP4EA5A-68">
          <mxGeometry y="348" width="220" height="39" as="geometry" />
        </mxCell>
        <mxCell id="c51lv8xuJla7acP4EA5A-94" value="" style="shape=partialRectangle;connectable=0;fillColor=none;top=0;left=0;bottom=0;right=0;editable=1;overflow=hidden;whiteSpace=wrap;html=1;fontSize=16;" vertex="1" parent="c51lv8xuJla7acP4EA5A-93">
          <mxGeometry width="30" height="39" as="geometry">
            <mxRectangle width="30" height="39" as="alternateBounds" />
          </mxGeometry>
        </mxCell>
        <mxCell id="c51lv8xuJla7acP4EA5A-95" value="cost" style="shape=partialRectangle;connectable=0;fillColor=none;top=0;left=0;bottom=0;right=0;align=left;spacingLeft=6;overflow=hidden;whiteSpace=wrap;html=1;fontSize=16;" vertex="1" parent="c51lv8xuJla7acP4EA5A-93">
          <mxGeometry x="30" width="190" height="39" as="geometry">
            <mxRectangle width="190" height="39" as="alternateBounds" />
          </mxGeometry>
        </mxCell>
        <mxCell id="c51lv8xuJla7acP4EA5A-96" value="" style="shape=tableRow;horizontal=0;startSize=0;swimlaneHead=0;swimlaneBody=0;fillColor=none;collapsible=0;dropTarget=0;points=[[0,0.5],[1,0.5]];portConstraint=eastwest;top=0;left=0;right=0;bottom=0;fontSize=16;" vertex="1" parent="c51lv8xuJla7acP4EA5A-68">
          <mxGeometry y="387" width="220" height="39" as="geometry" />
        </mxCell>
        <mxCell id="c51lv8xuJla7acP4EA5A-97" value="" style="shape=partialRectangle;connectable=0;fillColor=none;top=0;left=0;bottom=0;right=0;editable=1;overflow=hidden;whiteSpace=wrap;html=1;fontSize=16;" vertex="1" parent="c51lv8xuJla7acP4EA5A-96">
          <mxGeometry width="30" height="39" as="geometry">
            <mxRectangle width="30" height="39" as="alternateBounds" />
          </mxGeometry>
        </mxCell>
        <mxCell id="c51lv8xuJla7acP4EA5A-98" value="product_line" style="shape=partialRectangle;connectable=0;fillColor=none;top=0;left=0;bottom=0;right=0;align=left;spacingLeft=6;overflow=hidden;whiteSpace=wrap;html=1;fontSize=16;" vertex="1" parent="c51lv8xuJla7acP4EA5A-96">
          <mxGeometry x="30" width="190" height="39" as="geometry">
            <mxRectangle width="190" height="39" as="alternateBounds" />
          </mxGeometry>
        </mxCell>
        <mxCell id="c51lv8xuJla7acP4EA5A-99" value="" style="shape=tableRow;horizontal=0;startSize=0;swimlaneHead=0;swimlaneBody=0;fillColor=none;collapsible=0;dropTarget=0;points=[[0,0.5],[1,0.5]];portConstraint=eastwest;top=0;left=0;right=0;bottom=0;fontSize=16;" vertex="1" parent="c51lv8xuJla7acP4EA5A-68">
          <mxGeometry y="426" width="220" height="39" as="geometry" />
        </mxCell>
        <mxCell id="c51lv8xuJla7acP4EA5A-100" value="" style="shape=partialRectangle;connectable=0;fillColor=none;top=0;left=0;bottom=0;right=0;editable=1;overflow=hidden;whiteSpace=wrap;html=1;fontSize=16;" vertex="1" parent="c51lv8xuJla7acP4EA5A-99">
          <mxGeometry width="30" height="39" as="geometry">
            <mxRectangle width="30" height="39" as="alternateBounds" />
          </mxGeometry>
        </mxCell>
        <mxCell id="c51lv8xuJla7acP4EA5A-101" value="start_date" style="shape=partialRectangle;connectable=0;fillColor=none;top=0;left=0;bottom=0;right=0;align=left;spacingLeft=6;overflow=hidden;whiteSpace=wrap;html=1;fontSize=16;" vertex="1" parent="c51lv8xuJla7acP4EA5A-99">
          <mxGeometry x="30" width="190" height="39" as="geometry">
            <mxRectangle width="190" height="39" as="alternateBounds" />
          </mxGeometry>
        </mxCell>
        <mxCell id="c51lv8xuJla7acP4EA5A-102" value="" style="edgeStyle=entityRelationEdgeStyle;fontSize=12;html=1;endArrow=ERzeroToMany;startArrow=ERmandOne;rounded=0;exitX=1;exitY=0.5;exitDx=0;exitDy=0;entryX=0;entryY=0.5;entryDx=0;entryDy=0;" edge="1" parent="1" source="c51lv8xuJla7acP4EA5A-4" target="c51lv8xuJla7acP4EA5A-44">
          <mxGeometry width="100" height="100" relative="1" as="geometry">
            <mxPoint x="280" y="340" as="sourcePoint" />
            <mxPoint x="380" y="240" as="targetPoint" />
          </mxGeometry>
        </mxCell>
        <mxCell id="c51lv8xuJla7acP4EA5A-103" value="" style="edgeStyle=entityRelationEdgeStyle;fontSize=12;html=1;endArrow=ERzeroToMany;startArrow=ERmandOne;rounded=0;entryX=0;entryY=0.5;entryDx=0;entryDy=0;" edge="1" parent="1" target="c51lv8xuJla7acP4EA5A-69">
          <mxGeometry width="100" height="100" relative="1" as="geometry">
            <mxPoint x="640" y="301.5" as="sourcePoint" />
            <mxPoint x="780" y="250" as="targetPoint" />
          </mxGeometry>
        </mxCell>
        <mxCell id="c51lv8xuJla7acP4EA5A-104" value="&lt;h1 style=&quot;margin-top: 0px;&quot;&gt;&lt;font style=&quot;font-size: 18px;&quot;&gt;&lt;u style=&quot;&quot;&gt;Sales Calculation&lt;/u&gt;&lt;/font&gt;&lt;/h1&gt;&lt;p&gt;&lt;font style=&quot;font-size: 15px;&quot;&gt;&amp;nbsp;Sales = Quantity * price&lt;/font&gt;&lt;/p&gt;" style="text;html=1;whiteSpace=wrap;overflow=hidden;rounded=0;" vertex="1" parent="1">
          <mxGeometry x="550" y="620" width="180" height="120" as="geometry" />
        </mxCell>
        <mxCell id="c51lv8xuJla7acP4EA5A-105" value="" style="endArrow=none;dashed=1;html=1;dashPattern=1 3;strokeWidth=2;rounded=0;exitX=0.056;exitY=0.167;exitDx=0;exitDy=0;exitPerimeter=0;" edge="1" parent="1" source="c51lv8xuJla7acP4EA5A-104" target="c51lv8xuJla7acP4EA5A-56">
          <mxGeometry width="50" height="50" relative="1" as="geometry">
            <mxPoint x="450" y="660" as="sourcePoint" />
            <mxPoint x="500" y="610" as="targetPoint" />
          </mxGeometry>
        </mxCell>
      </root>
    </mxGraphModel>
  </diagram>
</mxfile>
